HIERARCHY
ROOT Hips
{
	OFFSET -0.001795 -0.223333 0.028219
	CHANNELS 6 Xposition Yposition Zposition Zrotation Yrotation Xrotation 
	JOINT LeftUpLeg
	{
		OFFSET 0.069520 -0.091406 -0.006815
		CHANNELS 3 Zrotation Yrotation Xrotation
		JOINT LeftLeg
		{
			OFFSET 0.034277 -0.375199 -0.004496
			CHANNELS 3 Zrotation Yrotation Xrotation
			JOINT LeftFoot
			{
				OFFSET -0.013596 -0.397961 -0.043693
				CHANNELS 3 Zrotation Yrotation Xrotation
				JOINT LeftToe
				{
					OFFSET 0.026358 -0.055791 0.119288
					CHANNELS 3 Zrotation Yrotation Xrotation
					End Site
					{
						OFFSET 0.000000 0.000000 0.000000
					}
				}
			}
		}
	}
	JOINT RightUpLeg
	{
		OFFSET -0.067670 -0.090522 -0.004320
		CHANNELS 3 Zrotation Yrotation Xrotation
		JOINT RightLeg
		{
			OFFSET -0.038290 -0.382569 -0.008850
			CHANNELS 3 Zrotation Yrotation Xrotation
			JOINT RightFoot
			{
				OFFSET 0.015774 -0.398415 -0.042312
				CHANNELS 3 Zrotation Yrotation Xrotation
				JOINT RightToe
				{
					OFFSET -0.025372 -0.048144 0.123348
					CHANNELS 3 Zrotation Yrotation Xrotation
					End Site
					{
						OFFSET 0.000000 0.000000 0.000000
					}
				}
			}
		}
	}
	JOINT Spine
	{
		OFFSET -0.002533 0.108963 -0.026696
		CHANNELS 3 Zrotation Yrotation Xrotation
		JOINT Spine1
		{
			OFFSET 0.005487 0.135180 0.001092
			CHANNELS 3 Zrotation Yrotation Xrotation
			JOINT Spine2
			{
				OFFSET 0.001457 0.052922 0.025425
				CHANNELS 3 Zrotation Yrotation Xrotation
				JOINT Neck
				{
					OFFSET -0.002778 0.213870 -0.042857
					CHANNELS 3 Zrotation Yrotation Xrotation
					JOINT Head
					{
						OFFSET 0.005152 0.064970 0.051349
						CHANNELS 3 Zrotation Yrotation Xrotation
						End Site
						{
							OFFSET 0.000000 0.000000 0.000000
						}
					}
				}
				JOINT LeftShoulder
				{
					OFFSET 0.078845 0.121749 -0.034090
					CHANNELS 3 Zrotation Yrotation Xrotation
					JOINT LeftArm
					{
						OFFSET 0.090977 0.030469 -0.008868
						CHANNELS 3 Zrotation Yrotation Xrotation
						JOINT LeftForeArm
						{
							OFFSET 0.259612 -0.012772 -0.027456
							CHANNELS 3 Zrotation Yrotation Xrotation
							JOINT LeftHand
							{
								OFFSET 0.249234 0.008986 -0.001171
								CHANNELS 3 Zrotation Yrotation Xrotation
								End Site
								{
									OFFSET 0.000000 0.000000 0.000000
								}
							}
						}
					}
				}
				JOINT RightShoulder
				{
					OFFSET -0.081759 0.118833 -0.038615
					CHANNELS 3 Zrotation Yrotation Xrotation
					JOINT RightArm
					{
						OFFSET -0.096012 0.032551 -0.009143
						CHANNELS 3 Zrotation Yrotation Xrotation
						JOINT RightForeArm
						{
							OFFSET -0.253742 -0.013329 -0.021401
							CHANNELS 3 Zrotation Yrotation Xrotation
							JOINT RightHand
							{
								OFFSET -0.255298 0.007772 -0.005559
								CHANNELS 3 Zrotation Yrotation Xrotation
								End Site
								{
									OFFSET 0.000000 0.000000 0.000000
								}
							}
						}
					}
				}
			}
		}
	}
}
MOTION
Frames: 12
Frame Time: 0.050000
0.000000 0.938726 0.000000 0.134111 -1.771116 6.672350 6.028763 -0.297711 -3.701165 -0.061232 0.178993 -5.097187 2.448708 7.753116 9.242252 0.000000 0.000000 0.000000 -4.842732 0.495038 -4.876309 -2.063133 -0.015402 -3.854059 -0.498749 -5.245023 9.310375 0.000000 0.000000 0.000000 5.015587 0.236364 -4.577665 -2.387322 1.112660 -3.670613 -4.103588 4.370131 4.607884 5.004848 -2.007779 -12.125480 0.000000 0.000000 0.000000 -16.297826 -1.746779 -1.575930 -55.374694 -7.734269 -2.915324 -7.249250 -16.139851 1.506690 0.000000 0.000000 0.000000 13.763595 -5.209773 -3.100579 64.372879 7.059230 -2.036598 5.833922 18.452528 1.580076 0.000000 0.000000 0.000000 
0.000202 0.938166 0.000067 0.061889 -2.486661 7.244743 5.803524 -0.275373 -3.087949 0.538717 0.203707 -6.652428 2.735609 8.233704 9.476626 0.000000 0.000000 0.000000 -4.735329 0.562398 -5.789570 -2.424343 0.022865 -3.553693 0.219084 -4.096447 9.885095 0.000000 0.000000 0.000000 6.192529 0.273534 -4.914689 -3.005907 1.366361 -4.161613 -5.170470 5.157047 4.198440 4.856275 -1.750035 -12.809133 0.000000 0.000000 0.000000 -16.835640 -1.053439 -2.141326 -54.318491 -7.802544 -2.750420 -7.862433 -15.934528 1.550832 0.000000 0.000000 0.000000 13.444817 -6.536407 -3.641883 65.798908 6.459576 -2.247723 6.153257 18.013083 1.595708 0.000000 0.000000 0.000000 
0.000319 0.938305 -0.000081 0.503163 -2.197665 7.237779 5.377573 -0.302057 -3.601278 0.589819 0.141801 -5.225405 2.636617 7.910346 8.679290 0.000000 0.000000 0.000000 -5.188221 0.575186 -6.099684 -2.459143 0.033140 -3.443229 -0.455928 -5.421202 9.914931 0.000000 0.000000 0.000000 5.739270 0.242497 -4.662090 -2.621351 1.197637 -5.340742 -5.663178 4.643711 4.562642 4.424114 -1.650858 -11.763519 0.000000 0.000000 0.000000 -16.614219 -1.161866 -1.978082 -54.419142 -7.564436 -2.920419 -7.039496 -14.863890 1.354117 0.000000 0.000000 0.000000 14.454250 -5.599417 -3.313178 64.283782 6.262626 -2.472565 6.577312 18.320987 1.681840 0.000000 0.000000 0.000000 
0.000353 0.938163 -0.000224 0.681524 -2.069394 7.568163 5.528524 -0.318195 -3.847262 -0.005787 0.191796 -5.548899 2.599852 7.898127 8.865645 0.000000 0.000000 0.000000 -5.433051 0.611907 -6.742152 -2.590593 0.024379 -3.735991 -0.501548 -5.700379 10.515285 0.000000 0.000000 0.000000 5.864427 0.238188 -4.690524 -3.069272 1.387395 -5.006028 -5.630807 3.811019 3.161609 3.609295 -1.329295 -10.488252 0.000000 0.000000 0.000000 -16.319445 -0.516197 -2.143205 -54.959665 -8.287309 -2.498830 -5.904572 -13.820268 1.132824 0.000000 0.000000 0.000000 13.172708 -5.720555 -3.382991 64.753811 5.895584 -2.520111 7.775482 18.644092 1.855361 0.000000 0.000000 0.000000 
0.000297 0.938740 -0.000403 0.947209 -1.605397 7.552396 5.083918 -0.332058 -3.978143 0.186292 0.178541 -5.517733 2.381561 7.616849 9.096948 0.000000 0.000000 0.000000 -5.586700 0.608184 -6.817726 -2.878683 0.033639 -3.925024 -0.794136 -6.325671 10.852831 0.000000 0.000000 0.000000 5.506755 0.232289 -4.684237 -2.800795 1.280039 -5.093049 -5.924245 3.516012 3.034267 3.216749 -1.052230 -10.579629 0.000000 0.000000 0.000000 -16.324474 -0.703457 -2.063438 -54.693902 -8.843513 -2.213320 -5.856564 -12.946347 1.055129 0.000000 0.000000 0.000000 13.140570 -5.938146 -3.482538 64.403117 5.625835 -2.640662 8.322287 18.814673 1.957335 0.000000 0.000000 0.000000 
0.000265 0.939198 -0.000489 1.089529 -1.617722 7.849942 5.037735 -0.340748 -4.074571 0.037480 0.190165 -5.587592 2.600319 7.999291 9.125451 0.000000 0.000000 0.000000 -5.682789 0.621658 -7.018247 -3.157053 0.015239 -4.470044 -0.710557 -6.405847 11.618604 0.000000 0.000000 0.000000 5.394907 0.244547 -4.891398 -2.896221 1.316937 -5.328835 -5.948607 3.451960 2.818048 3.294874 -1.134129 -10.364281 0.000000 0.000000 0.000000 -16.531459 -0.448397 -2.215668 -54.445038 -9.201471 -2.008019 -5.060390 -12.126804 0.906932 0.000000 0.000000 0.000000 12.669517 -5.955096 -3.451661 64.808538 5.510672 -2.669815 8.129392 18.541074 1.889962 0.000000 0.000000 0.000000 
0.000244 0.939508 -0.000558 1.211757 -1.415790 7.799083 4.816649 -0.336599 -3.928107 0.063366 0.198844 -5.875696 2.593020 8.159816 9.784586 0.000000 0.000000 0.000000 -5.749370 0.606838 -6.804912 -3.307192 0.002988 -4.798604 -0.594220 -6.215450 11.813288 0.000000 0.000000 0.000000 5.186480 0.234924 -4.811528 -2.916381 1.329165 -5.199041 -6.023112 3.081523 2.581714 3.398162 -1.175954 -10.687705 0.000000 0.000000 0.000000 -16.671962 -0.291697 -2.270674 -54.192959 -9.124513 -2.011934 -4.796067 -12.037150 0.876631 0.000000 0.000000 0.000000 12.721019 -5.834599 -3.438238 64.720408 5.173282 -2.853267 8.097534 18.604408 1.881654 0.000000 0.000000 0.000000 
0.000284 0.939751 -0.000641 1.315481 -1.228174 7.805232 4.541487 -0.341553 -3.957239 0.132506 0.185050 -5.611849 2.592907 8.115396 9.515371 0.000000 0.000000 0.000000 -5.851808 0.602809 -6.791618 -3.414619 0.012557 -4.762249 -0.621839 -6.196234 11.668061 0.000000 0.000000 0.000000 5.107382 0.226061 -4.735977 -2.963139 1.351124 -5.135021 -6.299593 3.166859 2.319456 3.336057 -1.134219 -10.524925 0.000000 0.000000 0.000000 -16.654386 -0.379014 -2.289092 -54.005614 -9.400054 -1.846620 -4.461474 -11.670485 0.811940 0.000000 0.000000 0.000000 12.715395 -6.049616 -3.507562 64.924248 4.966844 -2.921446 7.854728 18.177686 1.802645 0.000000 0.000000 0.000000 
0.000291 0.939715 -0.000771 1.430888 -1.122948 7.799619 4.357101 -0.349473 -4.070823 0.021349 0.185950 -5.454346 2.649768 8.175239 9.314803 0.000000 0.000000 0.000000 -5.886666 0.600107 -6.774285 -3.465316 0.006741 -4.895795 -0.558111 -6.026145 11.563257 0.000000 0.000000 0.000000 5.028410 0.223638 -4.721627 -3.081338 1.400965 -5.219108 -6.283095 3.209933 2.305389 3.080747 -0.968048 -10.451173 0.000000 0.000000 0.000000 -16.373624 -0.363309 -2.274566 -54.134700 -9.688408 -1.724154 -4.252353 -11.038740 0.747609 0.000000 0.000000 0.000000 12.649807 -6.118772 -3.520067 64.827210 4.772378 -3.013426 7.639838 17.742284 1.724352 0.000000 0.000000 0.000000 
0.000273 0.939802 -0.000917 1.544596 -0.968951 7.821322 4.248944 -0.361300 -4.252960 -0.083867 0.179822 -5.094416 2.638880 8.126820 9.128563 0.000000 0.000000 0.000000 -6.118961 0.591935 -6.703953 -3.401876 -0.007832 -5.066571 -0.425084 -5.813686 11.771500 0.000000 0.000000 0.000000 5.076913 0.229843 -4.804465 -3.335707 1.506562 -5.336642 -6.396960 3.302379 2.464282 2.856533 -0.769798 -10.747090 0.000000 0.000000 0.000000 -16.382941 -0.593692 -2.199297 -53.920029 -10.366777 -1.418018 -3.891552 -10.266677 0.663024 0.000000 0.000000 0.000000 12.791132 -6.172721 -3.531343 64.642683 4.883371 -2.951967 7.552089 17.206640 1.658685 0.000000 0.000000 0.000000 
0.000275 0.939923 -0.001075 1.609951 -0.895600 7.772181 4.213174 -0.360917 -4.242628 -0.137035 0.179830 -4.996586 2.550730 7.966115 9.062982 0.000000 0.000000 0.000000 -6.330058 0.590436 -6.774344 -3.248393 -0.004312 -4.892453 -0.464291 -5.855733 11.701482 0.000000 0.000000 0.000000 5.113772 0.225726 -4.747979 -3.402948 1.535062 -5.385717 -6.507329 3.381538 2.579104 2.803086 -0.727604 -10.727962 0.000000 0.000000 0.000000 -16.442040 -1.008808 -2.030093 -53.784054 -10.732139 -1.252019 -3.879982 -10.019063 0.645534 0.000000 0.000000 0.000000 12.642086 -6.020499 -3.420156 64.902847 5.113770 -2.825481 7.330778 16.930080 1.602002 0.000000 0.000000 0.000000 
0.000342 0.939994 -0.001221 1.712638 -0.522323 7.809436 4.267529 -0.365238 -4.273780 -0.176763 0.174845 -4.780956 2.436665 7.737056 8.802996 0.000000 0.000000 0.000000 -6.594838 0.584249 -6.830287 -3.067501 0.000969 -4.674696 -0.626969 -6.052475 11.500401 0.000000 0.000000 0.000000 5.019529 0.246031 -5.027618 -3.357364 1.522168 -5.251735 -6.541972 3.224902 2.727606 2.606789 -0.580154 -10.858839 0.000000 0.000000 0.000000 -16.378681 -1.599521 -1.734731 -53.948556 -11.402080 -0.963955 -3.957998 -9.780701 0.637857 0.000000 0.000000 0.000000 12.502243 -5.734040 -3.259273 65.059700 5.315720 -2.721257 7.274617 17.164051 1.621686 0.000000 0.000000 0.000000 
